P1
#Mapa de Islas, Ejemplo INF-134
10 10
0 0 0 0 1 0 0 0 0 0
0 0 0 0 0 0 0 0 1 0
0 1 0 0 0 1 0 0 0 0
0 0 0 0 0 0 0 0 0 0
0 0 1 0 0 0 0 0 1 0
0 0 0 0 0 0 0 0 0 0
0 0 0 0 0 0 0 0 0 1
0 0 0 0 0 1 0 1 0 0
0 0 1 0 0 0 0 0 0 0
0 0 0 0 0 0 0 0 0 1